<?xml version="1.0" standalone="no"?>
<!DOCTYPE svg PUBLIC "-//W3C//DTD SVG 20010904//EN"
 "http://www.w3.org/TR/2001/REC-SVG-20010904/DTD/svg10.dtd">
<svg version="1.0" xmlns="http://www.w3.org/2000/svg"
 width="878.000000pt" height="1280.000000pt" viewBox="0 0 878.000000 1280.000000"
 preserveAspectRatio="xMidYMid meet">
<metadata>
Created by potrace 1.15, written by Peter Selinger 2001-2017
</metadata>
<g transform="translate(0.000000,1280.000000) scale(0.100000,-0.100000)"
fill="#46b7de" stroke="none">
<path d="M6355 12794 c-487 -36 -979 -139 -1485 -311 -220 -75 -760 -306 -760
-326 0 -3 60 15 133 38 1047 343 1440 431 2061 466 856 48 1456 -187 1802
-707 239 -359 356 -849 356 -1499 1 -699 -138 -1263 -473 -1925 -123 -244
-194 -362 -429 -720 -222 -338 -306 -477 -401 -664 -169 -330 -267 -644 -314
-996 -25 -190 -35 -356 -45 -745 -12 -494 -19 -638 -36 -840 -106 -1264 -326
-2246 -678 -3025 -71 -157 -224 -445 -306 -575 -204 -326 -432 -540 -658 -619
l-42 -15 0 187 c0 103 5 239 10 302 26 291 38 383 154 1175 87 590 100 746
100 1175 0 360 -7 481 -45 760 -80 590 -247 1042 -521 1412 -61 83 -307 342
-316 333 -3 -2 37 -55 89 -117 163 -197 265 -362 357 -578 136 -319 208 -613
264 -1085 18 -150 18 -923 0 -1095 -66 -633 -125 -981 -262 -1545 -66 -270
-89 -380 -110 -526 -56 -386 6 -620 183 -700 77 -35 207 -33 295 4 118 49 228
132 393 296 301 300 567 677 785 1113 321 642 541 1401 709 2453 74 462 107
779 145 1365 57 892 74 1040 146 1290 81 285 213 564 509 1079 213 371 307
549 395 741 223 487 343 907 402 1405 17 149 17 782 0 930 -36 299 -72 496
-129 695 -245 853 -703 1249 -1593 1376 -100 14 -570 27 -685 18z"/>
<path d="M5825 12058 c-373 -198 -895 -291 -1463 -259 -331 18 -534 40 -1042
117 -162 24 -371 55 -465 68 -149 22 -215 30 -390 52 -111 13 -444 34 -550 34
-390 0 -754 -74 -1020 -207 -274 -137 -504 -390 -671 -738 -107 -222 -167
-425 -205 -690 -18 -121 -18 -618 -1 -745 61 -449 161 -772 366 -1195 161
-331 354 -652 710 -1185 401 -599 538 -855 613 -1144 22 -82 26 -123 26 -221
0 -146 -12 -192 -135 -510 -47 -121 -97 -260 -111 -310 -76 -265 -139 -528
-173 -720 -87 -502 -46 -1181 125 -2050 11 -55 38 -201 60 -325 79 -434 142
-661 237 -856 174 -358 453 -405 602 -101 81 163 113 291 223 897 12 63 41
203 66 310 254 1110 554 1948 928 2601 395 687 912 1227 1542 1612 70 42 124
77 120 77 -13 0 -143 -68 -278 -145 -792 -456 -1424 -1180 -1910 -2191 -328
-682 -600 -1489 -879 -2608 -44 -175 -81 -321 -83 -323 -7 -7 -97 373 -142
601 -116 587 -161 1074 -152 1664 7 501 43 797 142 1192 46 182 82 283 177
489 174 380 193 445 192 671 -1 265 -52 457 -199 755 -123 249 -262 459 -554
838 -367 476 -490 663 -677 1022 -472 911 -627 1752 -429 2341 115 342 365
627 690 785 162 78 306 119 548 156 156 24 736 24 1027 -1 113 -9 257 -21 320
-26 63 -5 212 -17 330 -27 273 -23 1319 -26 1515 -5 350 37 568 86 757 168 84
37 243 127 253 145 8 12 7 12 -40 -13z"/>
</g>
</svg>
