<svg version="1.0" xmlns="http://www.w3.org/2000/svg" width="1170.667" height="1706.667" viewBox="0 0 878 1280"><g fill="#46b7de"><path d="M635.5.6C586.8 4.2 537.6 14.5 487 31.7c-22 7.5-76 30.6-76 32.6 0 .3 6-1.5 13.3-3.8 104.7-34.3 144-43.1 206.1-46.6C716 9.1 776 32.6 810.6 84.6c23.9 35.9 35.6 84.9 35.6 149.9.1 69.9-13.8 126.3-47.3 192.5-12.3 24.4-19.4 36.2-42.9 72-22.2 33.8-30.6 47.7-40.1 66.4-16.9 33-26.7 64.4-31.4 99.6-2.5 19-3.5 35.6-4.5 74.5-1.2 49.4-1.9 63.8-3.6 84-10.6 126.4-32.6 224.6-67.8 302.5-7.1 15.7-22.4 44.5-30.6 57.5-20.4 32.6-43.2 54-65.8 61.9l-4.2 1.5v-18.7c0-10.3.5-23.9 1-30.2 2.6-29.1 3.8-38.3 15.4-117.5 8.7-59 10-74.6 10-117.5 0-36-.7-48.1-4.5-76-8-59-24.7-104.2-52.1-141.2-6.1-8.3-30.7-34.2-31.6-33.3-.3.2 3.7 5.5 8.9 11.7 16.3 19.7 26.5 36.2 35.7 57.8 13.6 31.9 20.8 61.3 26.4 108.5 1.8 15 1.8 92.3 0 109.5-6.6 63.3-12.5 98.1-26.2 154.5-6.6 27-8.9 38-11 52.6-5.6 38.6.6 62 18.3 70 7.7 3.5 20.7 3.3 29.5-.4 11.8-4.9 22.8-13.2 39.3-29.6 30.1-30 56.7-67.7 78.5-111.3 32.1-64.2 54.1-140.1 70.9-245.3 7.4-46.2 10.7-77.9 14.5-136.5 5.7-89.2 7.4-104 14.6-129 8.1-28.5 21.3-56.4 50.9-107.9 21.3-37.1 30.7-54.9 39.5-74.1 22.3-48.7 34.3-90.7 40.2-140.5 1.7-14.9 1.7-78.2 0-93-3.6-29.9-7.2-49.6-12.9-69.5C838.8 54.7 793 15.1 704 2.4 694 1 647-.3 635.5.6z"/><path d="M582.5 74.2C545.2 94 493 103.3 436.2 100.1c-33.1-1.8-53.4-4-104.2-11.7-16.2-2.4-37.1-5.5-46.5-6.8-14.9-2.2-21.5-3-39-5.2-11.1-1.3-44.4-3.4-55-3.4-39 0-75.4 7.4-102 20.7-27.4 13.7-50.4 39-67.1 73.8-10.7 22.2-16.7 42.5-20.5 69C.1 248.6.1 298.3 1.8 311c6.1 44.9 16.1 77.2 36.6 119.5 16.1 33.1 35.4 65.2 71 118.5 40.1 59.9 53.8 85.5 61.3 114.4 2.2 8.2 2.6 12.3 2.6 22.1 0 14.6-1.2 19.2-13.5 51-4.7 12.1-9.7 26-11.1 31-7.6 26.5-13.9 52.8-17.3 72-8.7 50.2-4.6 118.1 12.5 205 1.1 5.5 3.8 20.1 6 32.5 7.9 43.4 14.2 66.1 23.7 85.6 17.4 35.8 45.3 40.5 60.2 10.1 8.1-16.3 11.3-29.1 22.3-89.7 1.2-6.3 4.1-20.3 6.6-31 25.4-111 55.4-194.8 92.8-260.1 39.5-68.7 91.2-122.7 154.2-161.2 7-4.2 12.4-7.7 12-7.7-1.3 0-14.3 6.8-27.8 14.5-79.2 45.6-142.4 118-191 219.1-32.8 68.2-60 148.9-87.9 260.8-4.4 17.5-8.1 32.1-8.3 32.3-.7.7-9.7-37.3-14.2-60.1-11.6-58.7-16.1-107.4-15.2-166.4.7-50.1 4.3-79.7 14.2-119.2 4.6-18.2 8.2-28.3 17.7-48.9 17.4-38 19.3-44.5 19.2-67.1-.1-26.5-5.2-45.7-19.9-75.5-12.3-24.9-26.2-45.9-55.4-83.8-36.7-47.6-49-66.3-67.7-102.2-47.2-91.1-62.7-175.2-42.9-234.1 11.5-34.2 36.5-62.7 69-78.5 16.2-7.8 30.6-11.9 54.8-15.6 15.6-2.4 73.6-2.4 102.7.1 11.3.9 25.7 2.1 32 2.6 6.3.5 21.2 1.7 33 2.7 27.3 2.3 131.9 2.6 151.5.5 35-3.7 56.8-8.6 75.7-16.8 8.4-3.7 24.3-12.7 25.3-14.5.8-1.2.7-1.2-4 1.3z"/></g></svg>